<?xml version="1.0" encoding="iso-8859-1"?>
<!-- Generator: Adobe Illustrator 19.1.0, SVG Export Plug-In . SVG Version: 6.00 Build 0)  -->
<svg version="1.1" id="Capa_1" xmlns="http://www.w3.org/2000/svg" xmlns:xlink="http://www.w3.org/1999/xlink" x="0px" y="0px"
	 viewBox="0 0 60.474 60.474" style="enable-background:new 0 0 60.474 60.474;" xml:space="preserve">
<g>
	<g id="group-14svg">
		<path id="path-1_5_" style="fill:#99746A;" d="M2,27.262c-0.465,0-0.932-0.161-1.311-0.489c-0.834-0.725-0.923-1.987-0.199-2.821
			L13.644,8.797c0.38-0.438,0.931-0.689,1.51-0.689h0.001c0.579,0,1.13,0.252,1.51,0.689l13.147,15.155
			c0.724,0.834,0.634,2.097-0.2,2.821c-0.834,0.724-2.097,0.635-2.821-0.2L15.154,13.16L3.511,26.573
			C3.115,27.029,2.559,27.262,2,27.262z"/>
		<path id="path-2_5_" style="fill:#99746A;" d="M36.42,52.366c-13.262,0-24.052-10.646-24.052-23.732V10.89c0-1.104,0.895-2,2-2
			c1.104,0,2,0.896,2,2v17.744c0,10.88,8.995,19.732,20.052,19.732c11.058,0,20.054-8.901,20.054-19.84c0-1.105,0.895-2,2-2
			c1.104,0,2,0.895,2,2C60.474,41.671,49.684,52.366,36.42,52.366z"/>
	</g>
</g>
<g>
</g>
<g>
</g>
<g>
</g>
<g>
</g>
<g>
</g>
<g>
</g>
<g>
</g>
<g>
</g>
<g>
</g>
<g>
</g>
<g>
</g>
<g>
</g>
<g>
</g>
<g>
</g>
<g>
</g>
</svg>
